PathFileType   4   (X/Y/Z)
DataRate	CameraRate	NumFrames	NumMarkers	Units	OrigDataRate	OrigDataStartFrame	OrigNumFrames
120.0	120.0	8	37	mm	120.0	146	194
Frame#	Time	midhip	hip_r	hip_l	knee_r	knee_l	ankle_r	ankle_l	midasis	asis_r	asis_l	psis_r	psis_l	epicondLat_r	epicondLat_l	epicondMed_r	epicondMed_l	malleolusLat_r	malleolusLat_l	malleolusMedv_r	malleolusMedv_l	neck	subclavicle_r	subclavicle_l	sternalnotch	xyphoidprocess	thighwand_r	thighwand_l	upperleg1_r	upperleg1_l	upperleg2_r	upperleg2_l	shankwand_r	shankwand_l	lowerleg1_r	lowerleg1_l	toe_r	toe_l
 	 	X1	Y1	Z1	X2	Y2	Z2	X3	Y3	Z3	X4	Y4	Z4	X5	Y5	Z5	X6	Y6	Z6	X7	Y7	Z7	X8	Y8	Z8	X9	Y9	Z9	X10	Y10	Z10	X11	Y11	Z11	X12	Y12	Z12	X13	Y13	Z13	X14	Y14	Z14	X15	Y15	Z15	X16	Y16	Z16	X17	Y17	Z17	X18	Y18	Z18	X19	Y19	Z19	X20	Y20	Z20	X21	Y21	Z21	X22	Y22	Z22	X23	Y23	Z23	X24	Y24	Z24	X25	Y25	Z25	X26	Y26	Z26	X27	Y27	Z27	X28	Y28	Z28	X29	Y29	Z29	X30	Y30	Z30	X31	Y31	Z31	X32	Y32	Z32	X33	Y33	Z33	X34	Y34	Z34	X35	Y35	Z35	X36	Y36	Z36	X37	Y37	Z37

	146	1.58333	758.857	770.221	-197.338	739.811	776.985	-118.171	739.148	772.721	-273.741	738.964	420.917	-164.478	886.839	419.649	-342.649	729.734	60.340	-193.034	703.618	112.643	-321.003	868.337	845.016	-198.427	868.871	848.456	-72.909	867.803	841.575	-323.946	624.826	922.736	-165.709	621.376	918.035	-220.528	738.670	411.697	-93.576	885.177	432.671	-412.933	730.954	431.557	-237.062	895.101	394.082	-250.456	719.341	57.678	-156.059	687.580	119.719	-356.400	734.340	74.047	-228.715	709.814	130.510	-280.567	671.642	1348.433	-196.250	795.473	1271.332	-168.162	789.762	1272.936	-249.526	774.608	1268.378	-220.081	820.159	1190.696	-223.379	896.618	551.015	-64.175	982.284	655.166	-305.386	863.559	577.922	-84.115	933.351	649.691	-316.276	833.391	508.032	-101.700	948.549	577.237	-321.309	813.264	200.551	-152.573	735.014	212.551	-430.454	767.184	209.260	-163.962	744.275	223.836	-384.052	837.073	43.772	-185.076	786.735	66.390	-343.839
	147	1.59167	761.900	770.195	-197.253	742.676	776.982	-118.144	742.347	772.707	-273.714	740.491	420.889	-164.552	893.151	420.520	-341.028	729.899	60.387	-193.175	721.112	107.482	-321.096	871.488	844.798	-198.124	871.753	848.248	-72.597	871.223	841.348	-323.651	627.986	922.934	-165.598	624.601	918.259	-220.467	739.929	411.652	-93.653	892.316	433.597	-411.317	734.299	428.757	-236.928	899.748	394.939	-249.366	719.408	57.762	-156.225	704.788	114.203	-356.432	734.000	74.483	-228.922	726.778	125.007	-280.524	675.140	1348.550	-196.120	798.862	1271.218	-168.272	793.812	1272.802	-249.756	778.374	1268.379	-219.968	823.932	1190.546	-223.297	898.358	550.457	-63.686	986.097	656.620	-302.311	863.916	577.654	-83.935	937.564	650.675	-314.200	835.327	507.236	-101.602	953.331	578.742	-318.903	813.721	200.208	-152.564	748.849	209.196	-430.059	767.601	209.321	-163.693	757.677	220.232	-383.301	837.031	43.742	-184.955	806.039	65.336	-344.129
	148	1.60000	764.955	770.207	-197.160	745.589	776.981	-118.116	745.527	772.751	-273.688	742.040	420.838	-164.660	899.290	421.337	-339.372	730.075	60.452	-193.313	738.740	102.559	-321.168	874.625	844.660	-197.850	874.674	848.072	-72.337	874.575	841.247	-323.364	631.131	923.112	-165.515	627.840	918.443	-220.414	741.235	411.581	-93.766	899.237	434.451	-409.659	733.972	429.427	-236.677	902.967	396.018	-248.451	719.513	57.867	-156.381	722.153	108.898	-356.452	733.447	75.019	-229.133	744.094	119.888	-280.546	678.861	1348.846	-196.096	802.707	1271.175	-167.904	797.508	1272.871	-249.840	782.138	1268.386	-219.912	827.555	1190.533	-223.292	900.101	549.923	-63.304	989.887	657.935	-299.391	864.823	577.340	-83.448	942.057	651.928	-312.114	835.969	506.630	-101.583	957.967	579.855	-316.599	814.193	199.852	-152.633	762.750	205.936	-429.630	767.766	209.457	-163.412	771.379	217.019	-382.687	836.988	43.705	-184.868	825.289	64.465	-344.255
	149	1.60833	768.016	770.245	-197.084	748.534	776.968	-118.101	748.686	772.857	-273.676	743.631	420.762	-164.806	905.284	422.110	-337.680	730.278	60.537	-193.435	756.426	97.939	-321.208	877.743	844.590	-197.604	877.620	847.906	-72.122	877.866	841.274	-323.086	634.255	923.267	-165.477	631.086	918.588	-220.387	742.602	411.482	-93.918	905.952	435.234	-407.962	733.789	432.046	-237.527	905.242	397.039	-247.180	719.667	57.996	-156.514	739.616	103.867	-356.457	733.237	75.190	-229.296	761.643	115.270	-280.627	683.502	1348.978	-196.373	806.697	1271.149	-167.618	800.985	1273.088	-249.700	785.978	1268.398	-219.889	830.898	1190.567	-223.465	901.849	549.413	-63.013	993.676	659.132	-296.667	867.104	576.575	-82.876	946.447	652.871	-309.721	836.943	506.103	-101.787	961.964	580.765	-314.263	814.690	199.481	-152.765	776.719	202.796	-429.162	767.910	209.342	-163.417	785.144	213.874	-382.431	836.959	43.659	-184.818	844.439	63.804	-344.259
	150	1.61667	771.078	770.297	-197.053	751.498	776.932	-118.118	751.827	773.020	-273.698	745.280	420.664	-164.997	911.154	422.853	-335.948	730.512	60.641	-193.536	774.101	93.666	-321.208	880.841	844.573	-197.386	880.577	847.727	-71.954	881.106	841.420	-322.818	637.358	923.399	-165.497	634.329	918.699	-220.404	744.034	411.359	-94.116	912.475	435.948	-406.227	736.041	432.949	-238.448	912.639	397.009	-245.026	719.868	58.151	-156.621	757.120	99.158	-356.447	733.643	74.756	-229.395	778.867	110.990	-280.592	688.247	1348.927	-196.640	810.464	1271.153	-167.636	804.761	1273.141	-249.892	789.918	1268.404	-219.868	834.406	1190.513	-223.591	903.606	548.924	-62.797	997.480	660.233	-294.174	869.739	575.888	-82.797	950.012	653.360	-306.906	838.952	505.958	-101.855	966.343	581.970	-311.808	815.220	199.095	-152.946	790.747	199.798	-428.647	768.036	208.860	-163.908	798.744	210.760	-382.021	836.961	43.602	-184.809	863.444	63.369	-344.174
	151	1.62500	774.140	770.353	-197.094	754.474	776.863	-118.184	754.956	773.233	-273.770	746.993	420.552	-165.239	916.924	423.577	-334.172	730.767	60.763	-193.622	791.709	89.767	-321.168	883.925	844.592	-197.199	883.537	847.517	-71.832	884.314	841.668	-322.566	640.444	923.507	-165.583	637.560	918.788	-220.484	745.530	411.223	-94.365	918.819	436.595	-404.451	738.101	433.606	-238.902	923.366	396.240	-243.987	720.101	58.332	-156.708	774.617	94.805	-356.421	734.181	74.465	-229.453	795.495	107.065	-280.375	692.195	1348.915	-196.486	814.260	1271.100	-167.355	809.070	1273.053	-250.065	793.933	1268.385	-219.847	838.545	1190.431	-223.317	905.383	548.447	-62.640	1001.312	661.261	-291.938	872.017	575.831	-82.661	953.399	653.938	-304.317	840.810	505.931	-101.883	971.581	583.006	-309.877	815.789	198.698	-153.161	804.819	196.969	-428.086	768.745	208.511	-164.312	812.189	208.035	-381.209	837.002	43.534	-184.843	882.259	63.162	-344.023
	152	1.63333	777.206	770.410	-197.217	757.456	776.757	-118.309	758.085	773.483	-273.902	748.772	420.439	-165.534	922.614	424.291	-332.346	731.019	60.899	-193.706	809.202	86.252	-321.092	887.002	844.629	-197.046	886.496	847.266	-71.755	887.509	841.992	-322.337	643.524	923.587	-165.736	640.774	918.866	-220.638	747.085	411.088	-94.669	925.000	437.179	-402.635	739.173	435.200	-239.489	930.658	395.836	-243.691	720.335	58.534	-156.793	792.059	90.829	-356.383	734.498	74.585	-229.501	812.417	103.468	-280.233	696.009	1348.867	-196.409	818.194	1270.887	-167.024	813.640	1273.021	-249.985	797.999	1268.317	-219.870	842.973	1190.360	-223.076	907.193	547.973	-62.523	1005.174	662.233	-289.977	873.826	575.559	-82.040	957.177	654.386	-302.113	842.421	505.710	-102.044	976.185	583.668	-308.380	816.404	198.296	-153.398	818.912	194.337	-427.480	770.076	208.324	-164.343	825.849	205.345	-380.639	837.083	43.457	-184.917	900.844	63.170	-343.813
	153	1.64167	780.279	770.461	-197.420	760.441	776.619	-118.497	761.223	773.752	-274.098	750.612	420.339	-165.878	928.242	425.000	-330.468	731.245	61.043	-193.810	826.544	83.120	-320.990	890.081	844.666	-196.928	889.451	846.973	-71.716	890.710	842.359	-322.140	646.612	923.637	-165.958	643.972	918.942	-220.872	748.693	410.968	-95.020	931.033	437.700	-400.775	741.696	434.946	-240.274	934.997	396.555	-241.357	720.542	58.750	-156.898	809.405	87.239	-356.338	734.347	74.984	-229.586	829.267	100.069	-280.068	699.838	1348.865	-196.632	822.435	1270.758	-167.226	818.006	1272.885	-249.890	802.097	1268.199	-219.953	847.374	1190.255	-223.099	909.052	547.491	-62.436	1009.063	663.157	-288.296	875.325	574.780	-81.823	961.003	654.983	-300.503	844.594	505.300	-102.246	980.161	584.309	-306.553	817.070	197.895	-153.645	832.993	191.928	-426.837	771.174	208.206	-164.151	839.477	202.572	-380.028	837.199	43.375	-185.025	919.162	63.368	-343.542
